<svg width="41" height="22" viewBox="0 0 41 22" fill="none" xmlns="http://www.w3.org/2000/svg">
<g clip-path="url(#clip0_2106_370)">
<path d="M5.2826 7.97032C6.6581 7.18312 7.9997 6.39842 9.3639 5.65872C9.5121 5.57902 9.835 5.72032 10.0209 5.84752C12.7694 7.71862 15.5078 9.60772 18.2525 11.4853C20.2071 12.8235 21.403 12.8492 23.3677 11.4262C26.1664 9.40232 28.9249 7.31792 31.6797 5.22842C32.1093 4.90352 32.4259 4.86632 32.9045 5.12442C34.138 5.78972 35.413 6.38432 36.7383 7.04312C36.0851 7.75712 35.4821 8.42492 34.8666 9.08762C31.8577 12.3531 28.8458 15.6151 25.831 18.8736C25.1329 19.6109 24.3956 20.3085 23.6227 20.9631C22.1668 22.2165 20.5978 22.3411 18.9899 21.2957C18.2891 20.831 17.6352 20.2963 17.0378 19.6994C13.2693 15.9717 9.5096 12.2311 5.7587 8.47762C5.6105 8.32992 5.4711 8.17192 5.2826 7.97032Z" fill="#0D0D0D"/>
<path d="M8.41406 4.75911C7.19676 5.58361 6.05246 6.37081 4.88926 7.12851C4.80576 7.16591 4.71456 7.18151 4.62376 7.17391C4.53296 7.16631 4.44546 7.13571 4.36916 7.08491C3.37556 6.10751 2.38316 5.12641 1.44356 4.09641C1.13216 3.72211 0.894161 3.29001 0.742661 2.82371C0.515261 2.19571 0.634561 1.58061 1.15216 1.12981C1.66966 0.679006 2.28266 0.685407 2.86176 0.977007C3.38436 1.24751 3.88806 1.55471 4.36916 1.89651C5.69696 2.82371 7.01336 3.76761 8.41406 4.75911Z" fill="#0D0D0D"/>
<path d="M33.3317 3.97746C35.0489 2.73296 36.6694 1.54376 38.3212 0.381557C38.5899 0.218757 38.8899 0.117555 39.2005 0.0848554C39.7922 -0.00374455 40.3374 0.124657 40.7218 0.638357C41.1061 1.15206 41.0659 1.73896 40.762 2.25906C40.4464 2.78636 40.0857 3.28406 39.6842 3.74626C39.031 4.51676 38.3489 5.27326 37.653 6.00906C37.5273 6.13756 37.2258 6.25436 37.1065 6.18766C35.8755 5.49286 34.6595 4.75956 33.3317 3.97746Z" fill="#0D0D0D"/>
</g>
<defs>
<clipPath id="clip0_2106_370">
<rect width="41" height="22" fill="white" transform="translate(41 22) rotate(-180)"/>
</clipPath>
</defs>
</svg>
