<svg width="41" height="28" viewBox="0 0 41 28" fill="none" xmlns="http://www.w3.org/2000/svg">
<g clip-path="url(#clip0_514_1306)">
<path d="M4.96561 13.5773C6.34112 12.79 7.6827 12.0053 9.0469 11.2656C9.19512 11.186 9.51796 11.3273 9.70387 11.4544C12.4524 13.3255 15.1908 15.2147 17.9355 17.0923C19.8901 18.4304 21.086 18.4561 23.0506 17.0332C25.8494 15.0092 28.6079 12.9249 31.3627 10.8354C31.7923 10.5105 32.1088 10.4732 32.5874 10.7314C33.821 11.3966 35.096 11.9912 36.4213 12.65C35.7681 13.3641 35.1651 14.0319 34.5496 14.6946C31.5406 17.96 28.5288 21.222 25.514 24.4806C24.8158 25.2179 24.0786 25.9154 23.3056 26.57C21.8497 27.8235 20.2808 27.948 18.6729 26.9027C17.9721 26.438 17.3182 25.9032 16.7208 25.3063C12.9523 21.5786 9.19261 17.838 5.4417 14.0845C5.29347 13.9369 5.15404 13.7789 4.96561 13.5773Z" fill="#0D0D0D"/>
<path d="M8.09729 10.3655C6.88007 11.1899 5.7357 11.9772 4.57249 12.7349C4.48907 12.7723 4.39785 12.7879 4.30706 12.7803C4.21628 12.7727 4.12877 12.7421 4.05243 12.6912C3.05881 11.7139 2.06644 10.7328 1.12682 9.70279C0.815427 9.32849 0.577448 8.89639 0.425884 8.43009C0.198518 7.80209 0.317856 7.18694 0.835396 6.73616C1.35294 6.28539 1.96594 6.29181 2.54504 6.58334C3.06768 6.85387 3.57135 7.16112 4.05243 7.50286C5.3802 8.43009 6.69667 9.37402 8.09729 10.3655Z" fill="#0D0D0D"/>
<path d="M33.0146 9.5859C34.7318 8.34146 36.3522 7.15224 38.0041 5.98999C38.2727 5.82723 38.5728 5.72601 38.8834 5.69333C39.4751 5.60472 40.0202 5.73314 40.4046 6.24684C40.789 6.76054 40.7488 7.34745 40.4448 7.86757C40.1292 8.39488 39.7686 8.89255 39.367 9.35473C38.7138 10.1253 38.0317 10.8817 37.3358 11.6176C37.2102 11.746 36.9087 11.8629 36.7894 11.7961C35.5583 11.1013 34.3424 10.368 33.0146 9.5859Z" fill="#0D0D0D"/>
</g>
<g clip-path="url(#clip1_514_1306)">
<path d="M12.1701 4.33137C12.9077 3.91703 13.6271 3.50404 14.3586 3.11471C14.4381 3.07281 14.6112 3.14716 14.7109 3.21407C16.1847 4.19889 17.6531 5.19317 19.125 6.18137C20.1731 6.88568 20.8143 6.8992 21.8678 6.15028C23.3686 5.08503 24.8478 3.988 26.325 2.88828C26.5554 2.71727 26.7251 2.69767 26.9818 2.83353C27.6433 3.18366 28.327 3.49661 29.0376 3.84336C28.6873 4.21917 28.364 4.57065 28.0339 4.91942C26.4205 6.63807 24.8054 8.35491 23.1888 10.0699C22.8144 10.458 22.4191 10.8251 22.0046 11.1697C21.2239 11.8294 20.3826 11.8949 19.5204 11.3447C19.1446 11.1002 18.7939 10.8187 18.4736 10.5046C16.4528 8.54259 14.4367 6.57386 12.4254 4.59836C12.3459 4.52063 12.2711 4.43749 12.1701 4.33137Z" fill="#0D0D0D"/>
<path d="M13.8494 2.6408C13.1967 3.07474 12.583 3.48908 11.9593 3.88787C11.9145 3.90756 11.8656 3.91577 11.8169 3.91176C11.7682 3.90774 11.7213 3.89164 11.6804 3.86489C11.1476 3.35051 10.6154 2.83411 10.1116 2.29202C9.9446 2.09502 9.81699 1.8676 9.73571 1.62218C9.61379 1.29165 9.67778 0.967888 9.95531 0.73064C10.2328 0.493391 10.5615 0.496771 10.8721 0.650205C11.1523 0.792592 11.4224 0.9543 11.6804 1.13417C12.3924 1.62218 13.0983 2.11898 13.8494 2.6408Z" fill="#0D0D0D"/>
<path d="M27.2108 2.23054C28.1316 1.57557 29.0005 0.949665 29.8863 0.337956C30.0304 0.25229 30.1912 0.199018 30.3578 0.181818C30.6751 0.13518 30.9674 0.202772 31.1736 0.473141C31.3797 0.743509 31.3581 1.05241 31.1951 1.32615C31.0259 1.60369 30.8325 1.86562 30.6172 2.10887C30.2669 2.51442 29.9011 2.91254 29.528 3.29985C29.4606 3.36744 29.2989 3.42895 29.2349 3.3938C28.5748 3.02812 27.9228 2.64217 27.2108 2.23054Z" fill="#0D0D0D"/>
</g>
<defs>
<clipPath id="clip0_514_1306">
<rect width="22.5797" height="41" fill="white" transform="translate(41 5.3479) rotate(90)"/>
</clipPath>
<clipPath id="clip1_514_1306">
<rect width="11.8841" height="21.9855" fill="white" transform="translate(31.4928) rotate(90)"/>
</clipPath>
</defs>
</svg>
